<?xml version="1.0" standalone="no"?>
<!DOCTYPE svg PUBLIC "-//W3C//DTD SVG 20010904//EN"
 "http://www.w3.org/TR/2001/REC-SVG-20010904/DTD/svg10.dtd">
<svg version="1.0" xmlns="http://www.w3.org/2000/svg"
 width="1280.000000pt" height="640.000000pt" viewBox="0 0 1280.000000 640.000000"
 preserveAspectRatio="xMidYMid meet">
<g transform="translate(0.000000,640.000000) scale(0.100000,-0.100000)"
fill="#000000" stroke="none">
<path d="M4660 5710 c-706 -53 -1322 -187 -1955 -425 -845 -318 -1658 -830
-2304 -1449 -101 -97 -270 -285 -308 -342 -39 -59 -93 -219 -93 -276 0 -56 37
-184 71 -249 56 -104 307 -370 559 -593 1053 -929 2368 -1510 3761 -1660 383
-42 951 -47 1244 -11 1169 142 2489 699 4024 1697 l244 159 46 -32 c109 -77
473 -356 676 -517 512 -408 841 -693 1286 -1114 86 -82 158 -148 161 -148 10
0 703 743 703 753 0 12 -250 252 -481 463 -344 314 -1127 960 -1425 1177 -32
23 -58 49 -58 57 0 8 109 99 242 202 389 300 786 628 1111 916 229 204 611
565 611 579 0 14 -695 755 -706 751 -4 -2 -103 -94 -221 -204 -520 -491 -1072
-952 -1716 -1436 -202 -152 -225 -167 -245 -156 -12 6 -60 37 -107 68 -796
532 -1653 998 -2374 1291 -636 259 -1203 414 -1776 485 -156 19 -778 28 -970
14z m920 -1058 c859 -121 1857 -520 2960 -1183 320 -192 415 -253 415 -269 0
-17 -311 -212 -626 -393 -1104 -633 -2047 -985 -2873 -1072 -255 -26 -635 -19
-991 21 -992 110 -1964 497 -2781 1106 -142 106 -363 288 -398 327 -19 21 -19
21 5 47 41 44 268 227 406 328 878 640 1881 1012 2973 1101 245 20 722 13 910
-13z"/>
<path d="M4170 4466 c-15 -9 -162 -217 -360 -510 -210 -311 -340 -495 -349
-494 -8 2 -103 142 -212 313 -108 170 -207 317 -219 327 -14 11 -39 18 -67 18
-36 0 -50 -6 -74 -29 -59 -59 -56 -66 201 -471 127 -199 230 -369 230 -377 0
-8 -24 -49 -53 -91 -30 -43 -133 -195 -230 -339 -134 -199 -177 -270 -177
-293 0 -38 24 -86 49 -100 29 -15 93 -12 118 5 11 8 105 140 208 292 103 153
195 286 205 296 17 18 18 18 43 -15 13 -18 163 -251 332 -518 169 -267 318
-497 332 -512 68 -72 192 -16 180 83 -3 26 -106 195 -363 599 -196 310 -359
573 -361 584 -3 15 106 184 357 555 198 294 363 546 367 559 9 39 -10 85 -46
109 -38 26 -74 29 -111 9z"/>
<path d="M4993 4455 c-319 -86 -568 -482 -638 -1016 -22 -165 -20 -433 5 -602
67 -455 270 -812 534 -940 96 -47 162 -61 260 -54 449 29 780 644 753 1397
-17 460 -159 839 -397 1063 -125 118 -242 168 -390 166 -41 0 -99 -7 -127 -14z
m262 -219 c133 -61 269 -242 349 -464 115 -321 131 -743 41 -1098 -103 -405
-346 -670 -573 -624 -83 17 -144 55 -221 136 -142 149 -236 368 -288 669 -25
150 -23 472 5 625 53 291 152 516 287 653 127 130 265 165 400 103z"/>
<path d="M4728 3244 c-35 -18 -48 -43 -48 -89 0 -46 23 -81 62 -94 20 -7 160
-11 390 -11 292 0 365 3 394 15 73 30 79 134 10 176 -29 18 -54 19 -406 19
-311 -1 -380 -3 -402 -16z"/>
<path d="M5877 4390 c-38 -30 -52 -80 -34 -122 8 -19 155 -269 326 -556 171
-287 311 -531 311 -541 0 -11 -92 -252 -205 -535 -113 -284 -205 -528 -205
-542 0 -87 110 -138 175 -81 20 17 119 256 421 1017 218 547 398 1009 401
1026 16 97 -108 160 -179 90 -15 -15 -73 -150 -157 -361 -81 -206 -137 -335
-144 -332 -7 2 -134 207 -283 457 -149 249 -283 463 -298 476 -35 30 -93 32
-129 4z"/>
<path d="M7243 3918 c-29 -14 -56 -72 -48 -101 4 -12 77 -156 162 -320 85
-164 152 -304 150 -311 -3 -6 -95 -136 -205 -287 -110 -152 -205 -285 -211
-297 -33 -63 9 -142 76 -142 28 0 645 187 781 236 72 27 93 97 46 153 -38 45
-73 41 -313 -34 -218 -69 -231 -72 -231 -54 0 6 61 95 135 197 117 161 135
191 135 224 0 29 -25 86 -105 238 -58 109 -105 204 -105 210 0 17 16 12 211
-60 103 -38 195 -70 204 -70 49 0 95 51 95 105 0 56 -38 76 -383 204 -180 67
-337 121 -350 120 -12 0 -32 -5 -44 -11z"/>
<path d="M2317 3859 c-47 -27 -47 -30 -47 -661 0 -571 1 -594 20 -625 22 -37
69 -54 114 -42 40 12 64 36 76 78 14 49 13 1134 0 1183 -14 50 -52 78 -104 78
-22 0 -49 -5 -59 -11z"/>
</g>
</svg>
